<svg version="1.1" id="Layer_1" xmlns="http://www.w3.org/2000/svg" xmlns:xlink="http://www.w3.org/1999/xlink" x="0px" y="0px"
	 width="100%" viewBox="0 0 106 109" enable-background="new 0 0 106 109" xml:space="preserve">
<path fill="#4AB3D9" opacity="1.000000" stroke="none" 
	d="
M94.000000,110.000000 
	C63.055439,110.000000 32.110878,110.000000 1.083160,110.000000 
	C1.083160,73.787254 1.083160,37.574253 1.083160,1.000000 
	C15.018826,1.000000 29.040754,1.000000 43.540123,1.394240 
	C44.486332,3.513074 44.866863,5.267611 45.440060,6.956769 
	C47.321918,12.502417 49.273716,18.024332 50.915924,23.717768 
	C47.397953,27.307474 43.492725,30.323261 41.078022,34.254566 
	C37.041267,40.826683 36.838406,41.337982 28.237391,39.335133 
	C30.447285,36.633469 32.506416,34.116116 35.024857,31.037249 
	C29.726551,31.815973 27.732979,30.020937 27.614006,25.573347 
	C27.522284,22.144361 26.036293,19.234869 22.369997,19.877481 
	C20.364582,20.228981 17.635637,22.634686 17.223955,24.543465 
	C16.484398,27.972439 19.092009,29.682104 22.588047,30.251684 
	C24.988173,30.642715 27.254047,31.857759 28.705856,32.386276 
	C25.752544,39.526119 23.325174,45.435455 20.859743,51.328861 
	C20.155640,53.011963 19.396353,56.002926 18.566236,56.036777 
	C16.584942,56.117573 14.340158,55.109966 12.579366,53.962490 
	C9.954604,52.251976 7.469529,51.218102 5.042685,53.792099 
	C2.774791,56.197510 2.767202,59.101006 5.114658,61.393776 
	C7.489284,63.713078 10.029457,63.272312 12.703408,61.195210 
	C14.523320,59.781517 16.951122,59.150394 17.973217,58.685303 
	C21.628462,66.222183 24.743494,72.645187 28.004158,79.399475 
	C29.183905,84.360107 26.637691,85.186089 22.790743,85.012161 
	C19.205940,84.850075 17.067762,86.857605 17.048286,90.383972 
	C17.029976,93.699219 19.161818,95.729858 22.432693,95.631981 
	C25.692429,95.534439 27.179806,93.307426 27.734024,90.101868 
	C28.138145,87.764458 29.239361,85.547562 29.991831,83.386040 
	C34.835079,86.011002 38.426273,87.957375 42.365051,90.050468 
	C44.769371,90.820175 46.854179,91.364975 48.874199,92.090233 
	C50.570778,92.699348 53.600357,93.562195 53.579536,94.236794 
	C53.519581,96.179619 52.552517,98.343353 51.322933,99.945290 
	C49.262985,102.629036 48.822708,105.717255 51.296478,107.413811 
	C53.024570,108.598961 57.094578,108.607849 58.631104,107.339767 
	C61.329918,105.112488 60.804310,101.946373 57.922039,99.226082 
	C56.762875,98.132072 56.485149,95.886696 56.299671,94.113724 
	C56.245510,93.596031 57.848782,92.446220 58.766708,92.357773 
	C66.444801,91.617920 72.967705,88.358986 79.369156,82.683952 
	C80.603386,84.963776 82.600433,86.926994 82.411659,88.650856 
	C81.972252,92.663559 83.914940,94.474709 87.069260,96.254990 
	C89.425926,101.074593 91.712959,105.537300 94.000000,110.000000 
z"/>
<path fill="#4FB5D9" opacity="1.000000" stroke="none" 
	d="
M51.198639,23.555365 
	C49.273716,18.024332 47.321918,12.502417 45.440060,6.956769 
	C44.866863,5.267611 44.486332,3.513074 44.008781,1.394240 
	C64.921837,1.000000 85.843681,1.000000 107.000000,1.000000 
	C107.000000,19.020216 107.000000,37.041451 106.670990,55.423622 
	C102.689407,51.269302 100.780640,51.076649 96.689224,54.810287 
	C93.979736,57.282837 90.531235,56.953629 89.549263,54.172558 
	C87.107719,47.257736 84.622414,40.358368 81.682938,32.132698 
	C83.083725,31.685989 85.587868,30.667179 88.190918,30.112467 
	C91.523346,29.402327 93.667351,27.298439 92.734283,24.273241 
	C92.137848,22.339485 89.180611,19.794895 87.453194,19.918549 
	C85.659050,20.046976 82.543144,23.208796 82.696579,24.781502 
	C83.070213,28.611223 81.178490,30.198586 79.798691,31.125698 
	C71.586998,27.729269 64.187256,24.668674 55.526665,21.086578 
	C56.477764,19.368298 58.255768,17.171991 58.905674,14.681324 
	C59.494114,12.426206 59.694801,9.197197 58.478882,7.626895 
	C57.547363,6.423883 53.464462,6.210328 52.028946,7.260139 
	C50.619911,8.290585 50.540016,11.455402 50.392757,13.717134 
	C50.343269,14.477194 51.907417,15.313532 52.683140,16.161562 
	C54.909996,18.596012 54.251907,21.822279 51.198639,23.555365 
z"/>
<path fill="#E8DC2E" opacity="1.000000" stroke="none" 
	d="
M50.915924,23.717768 
	C54.251907,21.822279 54.909996,18.596012 52.683140,16.161562 
	C51.907417,15.313532 50.343269,14.477194 50.392757,13.717134 
	C50.540016,11.455402 50.619911,8.290585 52.028946,7.260139 
	C53.464462,6.210328 57.547363,6.423883 58.478882,7.626895 
	C59.694801,9.197197 59.494114,12.426206 58.905674,14.681324 
	C58.255768,17.171991 56.477764,19.368298 55.526665,21.086578 
	C64.187256,24.668674 71.586998,27.729269 79.798691,31.125698 
	C81.178490,30.198586 83.070213,28.611223 82.696579,24.781502 
	C82.543144,23.208796 85.659050,20.046976 87.453194,19.918549 
	C89.180611,19.794895 92.137848,22.339485 92.734283,24.273241 
	C93.667351,27.298439 91.523346,29.402327 88.190918,30.112467 
	C85.587868,30.667179 83.083725,31.685989 81.682938,32.132698 
	C84.622414,40.358368 87.107719,47.257736 89.549263,54.172558 
	C90.531235,56.953629 93.979736,57.282837 96.689224,54.810287 
	C100.780640,51.076649 102.689407,51.269302 106.670990,55.892281 
	C107.000000,56.750000 107.000000,57.500000 106.677139,58.762642 
	C103.315422,63.405296 100.726616,63.824802 97.353264,61.340439 
	C95.406830,59.906948 92.927475,59.197056 91.580177,58.574039 
	C88.002998,67.174171 84.937019,74.545288 81.582680,82.609665 
	C82.347710,83.065475 84.111252,84.998436 85.838676,84.966675 
	C89.759911,84.894585 92.525429,85.840508 92.933533,89.989258 
	C93.335899,94.079765 90.338387,95.284950 86.999626,95.898102 
	C83.914940,94.474709 81.972252,92.663559 82.411659,88.650856 
	C82.600433,86.926994 80.603386,84.963776 79.369156,82.683952 
	C72.967705,88.358986 66.444801,91.617920 58.766708,92.357773 
	C57.848782,92.446220 56.245510,93.596031 56.299671,94.113724 
	C56.485149,95.886696 56.762875,98.132072 57.922039,99.226082 
	C60.804310,101.946373 61.329918,105.112488 58.631104,107.339767 
	C57.094578,108.607849 53.024570,108.598961 51.296478,107.413811 
	C48.822708,105.717255 49.262985,102.629036 51.322933,99.945290 
	C52.552517,98.343353 53.519581,96.179619 53.579536,94.236794 
	C53.600357,93.562195 50.570778,92.699348 48.874199,92.090233 
	C46.854179,91.364975 44.769371,90.820175 42.460052,89.611786 
	C42.275074,88.734879 42.342678,88.443375 42.711033,88.115021 
	C43.348461,87.525490 43.853001,87.008514 43.980007,86.411255 
	C44.144718,85.636696 44.008755,84.798195 44.354790,83.942886 
	C47.401085,86.105530 50.094822,88.312515 53.516209,91.115662 
	C53.516209,84.646454 53.516209,79.928024 53.516209,75.110519 
	C49.222488,75.110519 45.294640,75.110519 41.007660,75.110519 
	C42.077389,78.262779 43.051815,81.134201 43.832539,84.403366 
	C42.597229,83.388382 41.064537,82.118050 40.605923,80.536285 
	C39.219509,75.754547 36.389885,73.916939 31.541365,75.013016 
	C30.488985,75.250916 29.361246,75.155472 27.865166,75.234978 
	C28.415642,76.404381 28.746225,77.106659 28.896870,78.040398 
	C28.430796,78.537308 28.144661,78.802742 27.858524,79.068184 
	C24.743494,72.645187 21.628462,66.222183 17.973217,58.685303 
	C16.951122,59.150394 14.523320,59.781517 12.703408,61.195210 
	C10.029457,63.272312 7.489284,63.713078 5.114658,61.393776 
	C2.767202,59.101006 2.774791,56.197510 5.042685,53.792099 
	C7.469529,51.218102 9.954604,52.251976 12.579366,53.962490 
	C14.340158,55.109966 16.584942,56.117573 18.566236,56.036777 
	C19.396353,56.002926 20.155640,53.011963 20.859743,51.328861 
	C23.325174,45.435455 25.752544,39.526119 28.705856,32.386276 
	C27.254047,31.857759 24.988173,30.642715 22.588047,30.251684 
	C19.092009,29.682104 16.484398,27.972439 17.223955,24.543465 
	C17.635637,22.634686 20.364582,20.228981 22.369997,19.877481 
	C26.036293,19.234869 27.522284,22.144361 27.614006,25.573347 
	C27.732979,30.020937 29.726551,31.815973 35.024857,31.037249 
	C32.506416,34.116116 30.447285,36.633469 28.237391,39.335133 
	C36.838406,41.337982 37.041267,40.826683 41.078022,34.254566 
	C43.492725,30.323261 47.397953,27.307474 50.915924,23.717768 
M43.477081,42.599987 
	C38.818634,42.601379 34.153255,42.460995 29.505844,42.688148 
	C28.058872,42.758877 25.767284,43.494907 25.399136,44.493134 
	C24.023727,48.222515 23.285732,52.186970 22.234241,56.358418 
	C33.450920,56.358418 43.500973,56.358418 53.594269,56.358418 
	C53.594269,51.710781 53.594269,47.454086 53.594269,42.600616 
	C50.363037,42.600616 47.413963,42.600616 43.477081,42.599987 
M52.854027,72.420624 
	C53.322205,68.138947 53.790382,63.857262 54.278160,59.396362 
	C43.215527,59.396362 33.065044,59.396362 22.891977,59.396362 
	C23.926323,74.577789 25.898848,73.439247 36.976238,72.034554 
	C36.696751,68.506577 36.415787,64.959915 36.134823,61.413254 
	C37.465836,61.657463 37.876930,61.975826 37.980038,62.373951 
	C40.674324,72.777412 40.668831,72.778900 51.469151,72.627106 
	C51.635269,72.624771 51.801243,72.611809 52.854027,72.420624 
M67.239227,56.750927 
	C68.689857,56.669151 70.140488,56.587379 72.081093,56.477985 
	C71.580391,52.521408 71.319672,48.898556 70.558258,45.384178 
	C70.325912,44.311737 68.776627,42.843292 67.726730,42.752235 
	C64.016655,42.430454 60.261627,42.626949 56.526443,42.626949 
	C56.526443,47.727962 56.526443,52.069855 56.526443,56.751560 
	C60.067875,56.751560 63.193691,56.751560 67.239227,56.750927 
M56.398743,71.854614 
	C60.326591,72.109741 64.253433,72.484711 68.183151,72.517807 
	C68.959343,72.524338 70.272415,71.320595 70.438080,70.494537 
	C71.168571,66.852089 71.569870,63.143620 72.116486,59.274429 
	C66.351753,59.274429 61.444592,59.274429 56.163601,59.274429 
	C56.163601,63.380154 56.163601,67.178535 56.398743,71.854614 
M86.976624,59.584423 
	C82.766197,59.344616 78.555771,59.104813 74.356583,58.865646 
	C73.804222,63.823124 73.337906,68.008446 72.873940,72.172607 
	C84.666527,73.686226 86.360756,72.295143 87.174248,60.980984 
	C87.186127,60.815857 87.168571,60.648617 86.976624,59.584423 
M85.408890,46.138844 
	C82.613472,39.483662 77.257370,43.934944 72.672569,42.452995 
	C73.319458,47.661110 73.857155,51.990120 74.406502,56.412872 
	C78.767448,56.412872 82.807106,56.412872 87.621223,56.412872 
	C86.928040,52.943974 86.326965,49.936020 85.408890,46.138844 
M66.319077,81.657730 
	C67.275887,79.629890 68.232704,77.602058 69.334221,75.267548 
	C64.561066,75.267548 60.523079,75.267548 56.430645,75.267548 
	C56.430645,80.313339 56.430645,84.998917 56.430645,89.977806 
	C61.381386,89.168549 63.730835,85.813690 66.319077,81.657730 
M52.865051,25.744703 
	C45.883793,27.859327 43.328808,33.556252 41.023739,39.831268 
	C45.494728,39.831268 49.505314,39.831268 53.602650,39.831268 
	C53.602650,35.028309 53.602650,30.613523 52.865051,25.744703 
M68.359085,38.359249 
	C65.937759,32.801342 63.547447,27.212751 56.520905,25.722122 
	C56.520905,30.850107 56.520905,35.390720 56.520905,40.746677 
	C60.892910,40.155624 64.782478,39.629795 68.359085,38.359249 
M70.034554,86.673042 
	C74.883224,83.919731 79.172844,80.602089 82.326561,74.943222 
	C79.552834,74.943222 77.577354,74.771263 75.648949,74.998619 
	C74.154793,75.174767 71.986023,75.403236 71.388802,76.383331 
	C69.158699,80.043121 67.452225,84.021973 65.264420,88.458946 
	C66.977463,87.830467 68.167236,87.393967 70.034554,86.673042 
M78.413376,35.072353 
	C74.342278,31.572748 70.416542,27.809267 64.667595,27.162983 
	C66.241394,29.749985 67.859688,32.059422 69.119789,34.550072 
	C72.339752,40.914490 74.046471,41.638031 81.502480,39.192581 
	C80.609192,37.950577 79.757355,36.766201 78.413376,35.072353 
M9.893835,54.748959 
	C8.532842,55.486595 6.965650,56.023434 5.934525,57.082298 
	C5.618714,57.406601 6.497581,59.671539 7.330290,60.122208 
	C8.192768,60.588989 10.604174,60.144821 10.698202,59.728619 
	C11.031109,58.255043 10.662850,56.623058 9.893835,54.748959 
M103.429504,55.525612 
	C101.875252,55.651527 100.252083,55.569885 98.814476,56.047161 
	C98.448372,56.168701 98.219505,58.449993 98.732903,59.050816 
	C99.441284,59.879837 101.732872,60.662071 101.920303,60.408836 
	C102.833229,59.175442 103.271034,57.590374 103.429504,55.525612 
M89.653206,87.780975 
	C88.108742,88.161774 86.461182,88.345009 85.091103,89.059967 
	C84.741364,89.242477 84.878937,91.567078 85.491310,92.091293 
	C86.331856,92.810822 88.756096,93.229935 88.903763,92.946190 
	C89.616058,91.577461 89.792091,89.929649 89.653206,87.780975 
M57.829781,105.066628 
	C57.062355,103.716103 56.474152,102.188416 55.419674,101.121635 
	C55.097996,100.796196 52.932644,101.475800 52.610188,102.163391 
	C52.146740,103.151634 52.350513,105.544456 52.700809,105.633095 
	C54.193356,106.010742 55.844681,105.760880 57.829781,105.066628 
M57.386185,9.371375 
	C55.785732,9.344357 54.137470,9.110626 52.624199,9.460582 
	C52.312641,9.532632 52.110775,11.977517 52.597614,12.963822 
	C52.946400,13.670452 55.141525,14.353120 55.447815,14.031659 
	C56.483719,12.944448 57.045040,11.405053 57.386185,9.371375 
M20.407463,27.267584 
	C21.925173,26.914482 23.568018,26.785324 24.874954,26.055025 
	C25.212969,25.866148 24.842360,23.505228 24.153555,22.678062 
	C23.633301,22.053303 21.302809,21.877590 21.135406,22.202147 
	C20.441917,23.546692 20.264347,25.157337 20.407463,27.267584 
M85.409149,26.750813 
	C86.959663,26.733667 88.583405,26.961426 90.011375,26.534470 
	C90.388321,26.421764 90.551712,24.096087 90.083534,23.146208 
	C89.730835,22.430609 87.553818,21.725462 87.328323,21.989351 
	C86.339081,23.147032 85.764442,24.658993 85.409149,26.750813 
z"/>
<path fill="#4EB5D9" opacity="1.000000" stroke="none" 
	d="
M87.069260,96.254990 
	C90.338387,95.284950 93.335899,94.079765 92.933533,89.989258 
	C92.525429,85.840508 89.759911,84.894585 85.838676,84.966675 
	C84.111252,84.998436 82.347710,83.065475 81.582680,82.609665 
	C84.937019,74.545288 88.002998,67.174171 91.580177,58.574039 
	C92.927475,59.197056 95.406830,59.906948 97.353264,61.340439 
	C100.726616,63.824802 103.315422,63.405296 106.677139,59.137642 
	C107.000000,75.878639 107.000000,92.757271 107.000000,110.000000 
	C102.991776,110.000000 98.972549,110.000000 94.476654,110.000000 
	C91.712959,105.537300 89.425926,101.074593 87.069260,96.254990 
z"/>
<path fill="#E2DB35" opacity="1.000000" stroke="none" 
	d="
M28.004158,79.399475 
	C28.144661,78.802742 28.430796,78.537308 29.191856,78.208908 
	C33.914612,81.481262 38.162445,84.816566 42.410278,88.151871 
	C42.342678,88.443375 42.275074,88.734879 42.112473,89.465057 
	C38.426273,87.957375 34.835079,86.011002 29.991831,83.386040 
	C29.239361,85.547562 28.138145,87.764458 27.734024,90.101868 
	C27.179806,93.307426 25.692429,95.534439 22.432693,95.631981 
	C19.161818,95.729858 17.029976,93.699219 17.048286,90.383972 
	C17.067762,86.857605 19.205940,84.850075 22.790743,85.012161 
	C26.637691,85.186089 29.183905,84.360107 28.004158,79.399475 
M19.338057,91.389626 
	C20.894726,93.666351 22.947853,94.116821 24.551031,91.877602 
	C25.112057,91.094002 23.967583,89.089348 23.601938,87.642296 
	C22.130182,88.637390 20.658426,89.632492 19.338057,91.389626 
z"/>
<path fill="#50B5D3" opacity="1.000000" stroke="none" 
	d="
M43.970985,42.600304 
	C47.413963,42.600616 50.363037,42.600616 53.594269,42.600616 
	C53.594269,47.454086 53.594269,51.710781 53.594269,56.358418 
	C43.500973,56.358418 33.450920,56.358418 22.234241,56.358418 
	C23.285732,52.186970 24.023727,48.222515 25.399136,44.493134 
	C25.767284,43.494907 28.058872,42.758877 29.505844,42.688148 
	C34.153255,42.460995 38.818634,42.601379 43.970985,42.600304 
z"/>
<path fill="#50B5D2" opacity="1.000000" stroke="none" 
	d="
M52.410652,72.512215 
	C51.801243,72.611809 51.635269,72.624771 51.469151,72.627106 
	C40.668831,72.778900 40.674324,72.777412 37.980038,62.373951 
	C37.876930,61.975826 37.465836,61.657463 36.134823,61.413254 
	C36.415787,64.959915 36.696751,68.506577 36.976238,72.034554 
	C25.898848,73.439247 23.926323,74.577789 22.891977,59.396362 
	C33.065044,59.396362 43.215527,59.396362 54.278160,59.396362 
	C53.790382,63.857262 53.322205,68.138947 52.410652,72.512215 
z"/>
<path fill="#53B6D1" opacity="1.000000" stroke="none" 
	d="
M66.779366,56.751244 
	C63.193691,56.751560 60.067875,56.751560 56.526443,56.751560 
	C56.526443,52.069855 56.526443,47.727962 56.526443,42.626949 
	C60.261627,42.626949 64.016655,42.430454 67.726730,42.752235 
	C68.776627,42.843292 70.325912,44.311737 70.558258,45.384178 
	C71.319672,48.898556 71.580391,52.521408 72.081093,56.477985 
	C70.140488,56.587379 68.689857,56.669151 66.779366,56.751244 
z"/>
<path fill="#53B6D1" opacity="1.000000" stroke="none" 
	d="
M56.281174,71.415764 
	C56.163601,67.178535 56.163601,63.380154 56.163601,59.274429 
	C61.444592,59.274429 66.351753,59.274429 72.116486,59.274429 
	C71.569870,63.143620 71.168571,66.852089 70.438080,70.494537 
	C70.272415,71.320595 68.959343,72.524338 68.183151,72.517807 
	C64.253433,72.484711 60.326591,72.109741 56.281174,71.415764 
z"/>
<path fill="#52B6D4" opacity="1.000000" stroke="none" 
	d="
M87.070686,60.033394 
	C87.168571,60.648617 87.186127,60.815857 87.174248,60.980984 
	C86.360756,72.295143 84.666527,73.686226 72.873940,72.172607 
	C73.337906,68.008446 73.804222,63.823124 74.356583,58.865646 
	C78.555771,59.104813 82.766197,59.344616 87.070686,60.033394 
z"/>
<path fill="#52B6D4" opacity="1.000000" stroke="none" 
	d="
M85.567383,46.533455 
	C86.326965,49.936020 86.928040,52.943974 87.621223,56.412872 
	C82.807106,56.412872 78.767448,56.412872 74.406502,56.412872 
	C73.857155,51.990120 73.319458,47.661110 72.672569,42.452995 
	C77.257370,43.934944 82.613472,39.483662 85.567383,46.533455 
z"/>
<path fill="#4EB4D5" opacity="1.000000" stroke="none" 
	d="
M44.026245,84.005630 
	C43.051815,81.134201 42.077389,78.262779 41.007660,75.110519 
	C45.294640,75.110519 49.222488,75.110519 53.516209,75.110519 
	C53.516209,79.928024 53.516209,84.646454 53.516209,91.115662 
	C50.094822,88.312515 47.401085,86.105530 44.357166,83.949638 
	C44.006981,84.000732 44.026245,84.005630 44.026245,84.005630 
z"/>
<path fill="#51B5D3" opacity="1.000000" stroke="none" 
	d="
M66.136192,81.979057 
	C63.730835,85.813690 61.381386,89.168549 56.430645,89.977806 
	C56.430645,84.998917 56.430645,80.313339 56.430645,75.267548 
	C60.523079,75.267548 64.561066,75.267548 69.334221,75.267548 
	C68.232704,77.602058 67.275887,79.629890 66.136192,81.979057 
z"/>
<path fill="#50B5D3" opacity="1.000000" stroke="none" 
	d="
M53.233849,25.971722 
	C53.602650,30.613523 53.602650,35.028309 53.602650,39.831268 
	C49.505314,39.831268 45.494728,39.831268 41.023739,39.831268 
	C43.328808,33.556252 45.883793,27.859327 53.233849,25.971722 
z"/>
<path fill="#52B6D4" opacity="1.000000" stroke="none" 
	d="
M68.515564,38.731606 
	C64.782478,39.629795 60.892910,40.155624 56.520905,40.746677 
	C56.520905,35.390720 56.520905,30.850107 56.520905,25.722122 
	C63.547447,27.212751 65.937759,32.801342 68.515564,38.731606 
z"/>
<path fill="#4EB4D5" opacity="1.000000" stroke="none" 
	d="
M42.711029,88.115021 
	C38.162445,84.816566 33.914612,81.481262 29.371796,77.977440 
	C28.746225,77.106659 28.415642,76.404381 27.865166,75.234978 
	C29.361246,75.155472 30.488985,75.250916 31.541365,75.013016 
	C36.389885,73.916939 39.219509,75.754547 40.605923,80.536285 
	C41.064537,82.118050 42.597229,83.388382 43.832539,84.403366 
	C44.026245,84.005630 44.006981,84.000732 44.004604,83.993973 
	C44.008755,84.798195 44.144718,85.636696 43.980007,86.411255 
	C43.853001,87.008514 43.348461,87.525490 42.711029,88.115021 
z"/>
<path fill="#53B6D1" opacity="1.000000" stroke="none" 
	d="
M69.695786,86.815254 
	C68.167236,87.393967 66.977463,87.830467 65.264420,88.458946 
	C67.452225,84.021973 69.158699,80.043121 71.388802,76.383331 
	C71.986023,75.403236 74.154793,75.174767 75.648949,74.998619 
	C77.577354,74.771263 79.552834,74.943222 82.326561,74.943222 
	C79.172844,80.602089 74.883224,83.919731 69.695786,86.815254 
z"/>
<path fill="#58B8CE" opacity="1.000000" stroke="none" 
	d="
M78.659447,35.327087 
	C79.757355,36.766201 80.609192,37.950577 81.502480,39.192581 
	C74.046471,41.638031 72.339752,40.914490 69.119789,34.550072 
	C67.859688,32.059422 66.241394,29.749985 64.667595,27.162983 
	C70.416542,27.809267 74.342278,31.572748 78.659447,35.327087 
z"/>
<path fill="#5EB8C6" opacity="1.000000" stroke="none" 
	d="
M10.227085,54.900036 
	C10.662850,56.623058 11.031109,58.255043 10.698202,59.728619 
	C10.604174,60.144821 8.192768,60.588989 7.330290,60.122208 
	C6.497581,59.671539 5.618714,57.406601 5.934525,57.082298 
	C6.965650,56.023434 8.532842,55.486595 10.227085,54.900036 
z"/>
<path fill="#5EB8C6" opacity="1.000000" stroke="none" 
	d="
M103.653252,55.827690 
	C103.271034,57.590374 102.833229,59.175442 101.920303,60.408836 
	C101.732872,60.662071 99.441284,59.879837 98.732903,59.050816 
	C98.219505,58.449993 98.448372,56.168701 98.814476,56.047161 
	C100.252083,55.569885 101.875252,55.651527 103.653252,55.827690 
z"/>
<path fill="#5EB8C6" opacity="1.000000" stroke="none" 
	d="
M89.905785,88.080902 
	C89.792091,89.929649 89.616058,91.577461 88.903763,92.946190 
	C88.756096,93.229935 86.331856,92.810822 85.491310,92.091293 
	C84.878937,91.567078 84.741364,89.242477 85.091103,89.059967 
	C86.461182,88.345009 88.108742,88.161774 89.905785,88.080902 
z"/>
<path fill="#53B6D1" opacity="1.000000" stroke="none" 
	d="
M57.633919,105.403343 
	C55.844681,105.760880 54.193356,106.010742 52.700809,105.633095 
	C52.350513,105.544456 52.146740,103.151634 52.610188,102.163391 
	C52.932644,101.475800 55.097996,100.796196 55.419674,101.121635 
	C56.474152,102.188416 57.062355,103.716103 57.633919,105.403343 
z"/>
<path fill="#58B8CE" opacity="1.000000" stroke="none" 
	d="
M57.586975,9.704936 
	C57.045040,11.405053 56.483719,12.944448 55.447815,14.031659 
	C55.141525,14.353120 52.946400,13.670452 52.597614,12.963822 
	C52.110775,11.977517 52.312641,9.532632 52.624199,9.460582 
	C54.137470,9.110626 55.785732,9.344357 57.586975,9.704936 
z"/>
<path fill="#58B8CE" opacity="1.000000" stroke="none" 
	d="
M20.152393,26.968925 
	C20.264347,25.157337 20.441917,23.546692 21.135406,22.202147 
	C21.302809,21.877590 23.633301,22.053303 24.153555,22.678062 
	C24.842360,23.505228 25.212969,25.866148 24.874954,26.055025 
	C23.568018,26.785324 21.925173,26.914482 20.152393,26.968925 
z"/>
<path fill="#58B8CE" opacity="1.000000" stroke="none" 
	d="
M85.224304,26.396645 
	C85.764442,24.658993 86.339081,23.147032 87.328323,21.989351 
	C87.553818,21.725462 89.730835,22.430609 90.083534,23.146208 
	C90.551712,24.096087 90.388321,26.421764 90.011375,26.534470 
	C88.583405,26.961426 86.959663,26.733667 85.224304,26.396645 
z"/>
<path fill="#53B6D1" opacity="1.000000" stroke="none" 
	d="
M19.262363,91.008606 
	C20.658426,89.632492 22.130182,88.637390 23.601936,87.642288 
	C23.967583,89.089348 25.112057,91.094002 24.551031,91.877602 
	C22.947853,94.116821 20.894726,93.666351 19.262363,91.008606 
z"/>
</svg>